<?xml version="1.0" encoding="utf-8"?>
<svg width="1024" height="1024" viewBox="0 0 1024 1024" fill="none" xmlns="http://www.w3.org/2000/svg">
  <g filter="url(#filter0_d_159_34)">
    <rect x="100" y="100" width="824" height="824" rx="184" fill="white"/>
    <rect x="100" y="100" width="824" height="824" rx="184" fill="url(#paint0_linear_159_34)" fill-opacity="0.41"/>
  </g>
  <defs>
    <filter id="filter0_d_159_34" x="78" y="89" width="868" height="868" filterUnits="userSpaceOnUse" color-interpolation-filters="sRGB">
      <feFlood flood-opacity="0" result="BackgroundImageFix"/>
      <feColorMatrix in="SourceAlpha" type="matrix" values="0 0 0 0 0 0 0 0 0 0 0 0 0 0 0 0 0 0 127 0" result="hardAlpha"/>
      <feOffset dy="11"/>
      <feGaussianBlur stdDeviation="11"/>
      <feColorMatrix type="matrix" values="0 0 0 0 0 0 0 0 0 0 0 0 0 0 0 0 0 0 0.28 0"/>
      <feBlend mode="normal" in2="BackgroundImageFix" result="effect1_dropShadow_159_34"/>
      <feBlend mode="normal" in="SourceGraphic" in2="effect1_dropShadow_159_34" result="shape"/>
    </filter>
    <linearGradient id="paint0_linear_159_34" x1="512" y1="100" x2="512" y2="924" gradientUnits="userSpaceOnUse">
      <stop stop-opacity="0"/>
      <stop offset="1" stop-opacity="0.1"/>
    </linearGradient>
  </defs>
  <g transform="matrix(0.117045, 0, 0, -0.117045, 153.263367, 859.66156)" fill="#fb3d0b" stroke="none" style="">
    <path d="M3823 5425 c-375 -155 -812 -430 -1167 -735 -98 -84 -98 -84 -75 -99 35 -22 119 -106 119 -119 0 -17 -27 -4 -104 51 l-69 49 -75 -78 c-89 -94 -281 -333 -342 -424 -51 -77 -65 -90 -101 -90 -40 0 -90 -82 -148 -238 -13 -35 -33 -70 -45 -78 -12 -8 -57 -38 -101 -67 -44 -28 -97 -65 -117 -80 l-37 -28 -16 30 c-9 18 -13 41 -9 56 4 15 2 25 -4 25 -6 0 -37 53 -70 118 -33 64 -72 128 -86 141 l-26 24 -65 -25 c-65 -26 -81 -24 -70 11 5 18 63 41 104 41 11 0 21 2 21 4 0 5 -61 150 -65 154 -1 2 -31 -4 -66 -12 -68 -15 -91 -9 -64 17 15 16 75 37 104 37 7 0 11 6 8 13 -27 68 -38 100 -53 150 l-16 59 -66 -4 c-42 -2 -66 1 -69 8 -5 15 49 34 95 34 28 0 33 3 27 18 -19 48 -75 322 -75 367 l0 33 -66 -6 c-54 -4 -66 -2 -62 9 3 9 24 15 63 17 l57 3 -6 57 c-13 118 -26 468 -20 536 11 120 -15 65 -61 -129 -37 -155 -48 -314 -41 -560 9 -322 33 -467 133 -784 54 -174 54 -174 37 -207 -17 -32 -17 -35 9 -121 15 -48 30 -104 33 -123 10 -51 32 -90 52 -90 17 0 82 -97 82 -122 0 -6 -44 -55 -97 -110 -102 -103 -101 -100 -50 -129 28 -16 21 -23 -50 -47 -78 -27 -186 -74 -323 -140 l-95 -46 35 -8 c42 -9 377 -28 507 -28 83 0 94 -2 121 -25 34 -29 62 -30 147 -10 85 21 95 19 152 -22 29 -21 104 -69 168 -108 121 -73 134 -89 84 -99 -53 -10 -67 -7 -101 23 -77 67 -144 78 -280 46 -72 -17 -78 -17 -149 0 -356 89 -894 -177 -1090 -537 -131 -242 -157 -513 -72 -743 24 -64 34 -65 61 -6 28 62 110 153 165 183 34 19 42 29 42 53 0 29 34 53 125 90 19 8 25 17 25 40 0 28 7 33 116 87 163 81 169 82 197 16 26 -61 27 -68 10 -68 -7 0 -37 -10 -66 -22 l-54 -23 5 -62 5 -63 -42 -11 c-22 -5 -48 -12 -57 -15 -9 -2 -33 -29 -54 -59 -50 -73 -119 -127 -206 -161 -91 -36 -74 -47 75 -48 233 -2 548 150 783 377 150 145 205 227 225 337 9 47 17 64 32 70 12 5 47 18 79 30 l58 23 30 -29 29 -28 38 23 c20 12 56 32 80 43 49 25 51 36 17 76 -35 42 -34 44 58 81 107 44 105 41 73 107 -15 31 -26 58 -23 60 2 3 38 -13 78 -35 128 -68 168 -76 384 -74 105 0 226 6 271 12 133 19 154 -9 50 -65 -22 -12 -62 -17 -145 -19 -655 -15 -1365 -644 -1398 -1237 -7 -123 -3 -127 50 -63 71 85 234 185 364 224 43 13 58 22 56 35 -3 40 161 67 256 42 l33 -9 -4 41 c-4 48 -9 45 114 72 102 23 134 24 166 6 l24 -13 -24 -15 c-13 -9 -61 -34 -106 -57 -79 -40 -83 -43 -77 -69 4 -20 0 -34 -15 -50 -25 -27 -37 -27 -75 -2 -41 27 -45 26 -45 -18 0 -35 -3 -39 -37 -49 -21 -6 -94 -31 -163 -56 -69 -24 -154 -50 -190 -57 -93 -18 -93 -25 -7 -65 168 -78 421 -106 624 -70 402 71 818 320 961 574 35 62 68 190 58 218 -3 8 22 32 62 58 37 25 117 81 177 125 61 43 144 102 185 131 41 29 85 64 97 78 24 28 31 14 12 -22 -36 -68 -226 -340 -260 -371 -32 -31 -39 -43 -37 -70 1 -25 -9 -48 -44 -97 -82 -115 -178 -261 -178 -270 0 -24 116 30 310 143 170 99 220 145 294 270 30 51 68 103 85 116 32 23 56 69 133 255 22 54 46 96 51 94 41 -13 32 -185 -17 -320 -28 -81 -32 -98 -20 -108 9 -7 12 -20 7 -38 -13 -51 -115 -296 -149 -357 -42 -74 -43 -87 -9 -74 98 37 298 207 333 282 14 32 22 38 50 38 27 0 35 6 47 33 11 24 75 324 75 351 0 3 10 6 23 8 27 4 27 40 1 186 -10 51 -15 94 -12 97 22 22 101 -77 185 -231 43 -80 60 -103 72 -98 42 17 50 15 65 -14 21 -41 63 -188 67 -236 l4 -39 -85 -27 c-175 -54 -375 -168 -542 -307 -87 -72 -87 -72 -55 -100 144 -131 317 -189 422 -141 32 15 38 8 24 -28 -15 -40 46 -95 173 -158 120 -60 135 -59 204 5 l54 52 0 -61 0 -60 52 -12 c33 -8 83 -11 142 -6 163 11 210 35 222 112 9 64 20 57 58 -39 10 -24 21 -37 33 -37 63 1 293 142 293 180 0 24 -54 158 -101 251 -85 170 -138 240 -261 344 -13 11 -18 30 -18 66 l0 52 45 -5 c41 -5 45 -4 45 16 0 50 -41 335 -54 381 -15 48 -11 64 17 65 15 0 5 43 -37 157 -75 206 -154 340 -268 457 l-67 69 22 28 c29 40 18 57 -121 190 -137 132 -264 225 -394 287 -103 50 -113 62 -73 88 41 27 30 46 -59 101 -252 158 -535 266 -808 309 -156 24 -150 22 -139 42 19 36 -4 49 -159 90 -384 101 -746 104 -1032 6 -98 -33 -98 -33 23 157 144 228 308 436 507 639 61 64 112 120 112 124 0 4 -20 28 -45 53 -24 25 -42 50 -39 55 8 13 57 -20 80 -53 25 -38 22 -39 109 31 94 77 92 71 49 114 -19 19 -33 40 -29 46 9 15 44 -7 63 -41 22 -38 27 -37 97 19 152 122 425 307 593 402 85 49 111 71 80 69 -7 0 -81 -29 -165 -64z m-989 -698 c44 -42 58 -67 35 -67 -31 0 -120 76 -112 96 9 23 28 16 77 -29z m-1720 -136 c7 -11 -28 -21 -69 -20 l-30 1 30 13 c35 16 62 19 69 6z m1377 -226 c53 -33 80 -67 64 -83 -8 -8 -135 59 -142 76 -6 14 3 42 13 42 3 0 33 -16 65 -35z m-150 -236 c49 -31 68 -66 43 -76 -8 -3 -31 6 -52 19 -21 14 -58 35 -82 48 -55 28 -54 26 -45 40 12 19 84 3 136 -31z m-205 -225 c67 -23 126 -62 122 -81 -6 -33 -33 -38 -86 -15 -65 28 -59 30 -76 -27 -8 -27 -21 -62 -30 -79 -22 -43 -21 -49 19 -74 23 -15 39 -35 45 -57 18 -64 -4 -67 -80 -10 -30 23 -70 49 -88 57 -39 19 -39 22 10 137 76 177 77 179 164 149z m913 -64 c115 -10 359 -56 374 -70 20 -19 -56 -62 -97 -55 -370 60 -808 7 -1043 -125 -73 -41 -75 -34 -23 66 50 96 62 104 201 142 174 47 369 61 588 42z m-1685 -140 c21 -43 44 -84 52 -91 23 -19 17 -27 -35 -54 -27 -13 -52 -29 -56 -35 -16 -25 -35 -4 -63 73 -45 121 -45 139 1 167 52 32 60 27 101 -60z m2233 -41 c43 -6 79 -12 80 -13 9 -9 51 -202 45 -208 -4 -3 -35 -16 -68 -27 -34 -11 -140 -49 -235 -85 -168 -62 -331 -114 -413 -132 -37 -8 -41 -13 -51 -54 -7 -25 -17 -56 -24 -69 -17 -30 -7 -37 66 -46 59 -7 104 -38 84 -58 -7 -7 -42 -4 -117 11 l-106 22 -82 -83 c-108 -111 -166 -132 -361 -132 -141 0 -196 -14 -158 -39 62 -43 427 -141 487 -132 60 10 106 -9 106 -44 0 -16 -5 -32 -11 -35 -40 -26 -278 30 -499 115 -58 23 -118 46 -135 52 -61 22 -60 26 30 155 l15 22 72 -21 c263 -74 505 111 481 368 l-5 49 98 39 c228 90 447 214 569 320 47 41 34 39 132 25z m-307 -19 c0 -11 -219 -130 -241 -130 -15 0 -44 54 -64 118 l-6 22 155 0 c93 0 156 -4 156 -10z m-383 -85 c14 -38 30 -76 36 -83 5 -7 8 -14 6 -16 -16 -15 -184 -85 -187 -77 -21 63 -124 160 -192 182 -65 20 -66 21 -30 31 70 17 226 36 284 35 l58 -2 25 -70z m1043 25 c221 -60 505 -187 505 -225 0 -44 -53 -41 -170 10 -120 52 -328 125 -358 125 -17 0 -18 -5 -12 -42 10 -58 5 -54 103 -84 96 -29 332 -121 346 -134 10 -10 -63 -230 -76 -230 -5 0 -41 14 -79 31 -91 39 -246 99 -258 99 -5 0 -10 -24 -10 -52 0 -29 -7 -73 -15 -97 -20 -56 -20 -58 5 -66 11 -4 54 -27 95 -51 41 -24 80 -44 88 -44 14 0 48 35 65 68 12 23 36 28 60 13 15 -10 -23 -88 -77 -159 -31 -41 -37 -39 -165 44 -53 35 -116 73 -138 85 -34 17 -40 24 -34 42 50 161 43 482 -15 651 -15 43 -13 58 8 53 9 -3 69 -19 132 -37z m-1984 -44 c19 -19 34 -43 34 -55 0 -11 14 -36 30 -54 l30 -35 -23 -15 c-12 -8 -36 -35 -52 -61 -36 -57 -34 -57 -84 9 l-42 56 21 86 c30 122 32 123 86 69z m-180 -51 c-25 -59 -20 -115 15 -181 20 -39 26 -60 19 -62 -7 -3 -65 -31 -131 -63 -135 -66 -277 -109 -364 -109 l-59 0 59 61 c127 129 467 417 473 400 2 -5 -4 -26 -12 -46z m740 6 c143 -64 209 -245 142 -388 -29 -61 -36 -54 -30 30 11 180 -80 306 -224 308 -130 2 -214 -95 -201 -232 14 -160 148 -227 296 -149 74 39 96 32 64 -21 -67 -117 -271 -118 -372 -2 -204 231 44 578 325 454z m-1066 -23 c28 -46 25 -60 -15 -85 -47 -31 -50 -30 -81 23 l-28 47 30 23 c41 34 70 31 94 -8z m974 -129 c53 -41 16 -121 -49 -105 -59 15 -68 93 -13 116 32 12 32 12 62 -11z m1304 -40 c4 -33 -20 -53 -53 -45 -32 8 -33 39 -2 61 30 21 51 15 55 -16z m870 -157 c151 -77 452 -311 452 -352 0 -4 -21 -21 -47 -38 l-48 -31 -55 58 c-101 107 -301 264 -328 259 -7 -2 -20 -17 -27 -34 l-12 -30 91 -61 c103 -70 266 -209 266 -229 0 -7 -15 -23 -32 -35 -18 -12 -57 -42 -85 -66 l-53 -44 -92 85 c-51 47 -126 108 -165 136 -42 29 -75 61 -79 73 -4 18 46 189 101 345 6 18 11 16 113 -36z m-2758 9 c0 -16 -24 -28 -115 -60 -132 -45 -136 -38 -10 19 118 52 125 55 125 41z m200 -11 c0 -32 44 -122 83 -168 21 -24 37 -46 37 -48 0 -12 -101 -153 -112 -157 -49 -17 -372 81 -463 142 -79 52 -83 63 -28 74 74 15 229 71 343 123 129 60 140 62 140 34z m1638 -22 c5 -29 -77 -109 -242 -234 -23 -18 -90 -79 -150 -138 l-109 -106 -56 0 c-169 0 -378 47 -347 78 17 18 25 18 207 3 200 -15 197 -16 364 155 232 238 321 303 333 242z m-2219 -220 c89 -81 90 -87 2 -95 -54 -5 -64 -3 -86 17 -23 21 -29 22 -207 20 -101 -1 -190 -1 -198 0 -27 3 351 126 397 129 7 1 48 -32 92 -71z m1746 -48 c3 -5 -7 -24 -23 -41 -47 -52 -83 -16 -40 39 12 14 54 16 63 2z m553 -61 c177 -91 217 -326 79 -472 -31 -34 -38 -37 -57 -27 -34 18 -35 38 -3 67 114 107 68 311 -82 369 -127 48 -285 -46 -285 -170 0 -32 -13 -39 -56 -32 -65 13 -37 123 53 207 113 106 222 124 351 58z m582 -53 c0 -6 -13 -36 -30 -66 -24 -45 -29 -67 -30 -122 l0 -66 54 -30 c76 -43 186 -139 186 -162 0 -19 -7 -22 -71 -34 -10 -2 -21 6 -27 19 -20 43 -154 135 -197 135 -13 0 -15 18 -15 114 l0 114 35 51 c61 89 68 94 82 74 7 -9 13 -22 13 -27z m122 -119 c-6 -80 105 -171 173 -143 45 19 44 11 -2 -36 -47 -48 -52 -48 -116 10 -29 26 -69 56 -89 67 -49 26 -51 32 -20 99 33 73 59 75 54 3z m-2377 -18 c96 -98 263 -209 316 -209 10 0 19 -5 19 -11 0 -22 -146 -3 -208 27 -48 24 -282 213 -290 235 -2 5 23 9 55 9 57 0 60 -1 108 -51z m1615 32 c66 -35 77 -127 23 -191 -46 -55 -106 -20 -65 38 29 40 39 91 21 103 -30 19 -49 9 -74 -41 -27 -54 -31 -56 -69 -38 -31 13 -40 37 -27 69 27 71 118 100 191 60z m1425 -32 c75 -83 245 -397 223 -413 -1 -2 -43 -8 -93 -15 -49 -7 -121 -22 -160 -32 -92 -25 -91 -25 -115 21 -11 22 -66 85 -123 140 l-102 101 54 51 c88 82 241 187 272 188 4 0 23 -18 44 -41z m-1011 5 c8 -22 -12 -147 -27 -160 -39 -38 -57 -28 -57 33 0 32 -3 74 -6 95 -5 30 -3 37 12 41 40 10 72 7 78 -9z m-2746 -139 c35 -11 62 -25 62 -33 0 -11 -25 -69 -35 -80 -2 -2 -36 -15 -76 -29 -40 -14 -101 -43 -136 -65 -74 -47 -60 -52 -192 74 -105 101 -107 93 36 133 109 30 243 30 341 0z m298 -12 c78 -50 149 -226 108 -267 -24 -25 -31 -20 -44 32 -18 73 -68 158 -117 198 -66 54 -22 86 53 37z m1804 -39 c70 -26 69 -31 -11 -68 -41 -19 -92 -47 -114 -62 l-40 -27 -77 28 c-49 17 -102 28 -143 29 -107 3 -102 9 71 79 60 25 118 46 129 49 31 6 135 -10 185 -28z m-1900 -60 c36 -41 66 -105 81 -172 11 -50 3 -67 -36 -75 -28 -5 -29 -2 -40 85 -6 44 -47 117 -82 145 -12 10 -12 14 4 32 24 29 36 27 73 -15z m-617 -89 c219 -184 234 -247 95 -392 -40 -43 -61 -52 -73 -33 -8 12 13 47 49 83 54 54 60 106 20 185 -32 65 -27 65 -163 -13 -222 -128 -426 -309 -541 -482 -30 -45 -58 -82 -62 -83 -16 0 -7 134 13 216 42 172 106 288 230 419 63 66 262 215 288 215 4 0 69 -52 144 -115z m2686 23 c45 -59 80 -135 69 -146 -23 -23 -45 -11 -96 53 l-52 65 -35 -23 c-43 -27 -43 -27 3 -90 21 -29 46 -65 56 -81 l18 -29 -30 -30 c-38 -38 -54 -32 -87 32 -13 28 -45 75 -70 105 -57 71 -58 66 28 116 39 24 85 54 100 67 32 26 53 17 96 -39z m509 37 c42 -14 88 -32 101 -39 l24 -14 -24 -7 c-61 -18 -87 -38 -104 -76 -20 -43 -26 -46 -45 -24 -7 8 -37 29 -66 46 -60 34 -60 36 -7 107 29 38 25 38 121 7z m592 -43 c0 -13 -11 -40 -25 -60 -32 -47 -35 -38 35 -121 65 -77 67 -91 18 -125 -21 -15 -23 -14 -45 25 -13 23 -46 69 -74 102 -67 80 -66 77 -24 134 69 93 72 95 95 81 11 -7 20 -23 20 -36z m-3303 -29 c45 -21 78 -88 67 -136 -28 -128 -204 -147 -254 -28 -29 71 50 170 143 180 5 1 25 -7 44 -16z m1756 -61 c61 -27 59 -35 -10 -61 -32 -12 -78 -33 -102 -45 l-44 -23 -78 41 c-90 47 -91 51 -18 88 67 35 173 35 252 0z m1136 -17 c34 -17 40 -34 48 -147 l6 -87 -44 10 c-24 6 -57 9 -72 6 -37 -5 -47 20 -47 119 0 105 36 137 109 99z m-344 -24 c63 -39 81 -64 69 -95 -8 -22 -27 -20 -84 9 -27 14 -58 25 -70 25 -26 0 -25 6 6 47 29 38 38 40 79 14z m906 -2 c24 -24 21 -39 -14 -59 -24 -13 -27 -13 -46 9 -25 29 -25 30 -4 53 21 23 38 23 64 -3z m-1529 -109 c64 -126 71 -207 17 -210 -9 0 -45 87 -59 143 -7 26 -14 47 -16 47 -15 0 -115 -51 -112 -57 55 -108 76 -182 62 -220 -14 -42 -27 -32 -45 33 -16 61 -65 158 -106 207 -28 34 -24 42 25 58 20 7 68 27 107 46 86 41 81 42 127 -47z m-551 39 c69 -23 174 -73 183 -88 3 -5 -34 -11 -82 -13 -103 -5 -175 -37 -259 -112 -62 -56 -47 -56 -140 5 -43 28 -115 69 -161 91 -93 45 -93 49 -6 79 181 64 345 77 465 38z m2571 -94 c23 -112 45 -264 40 -269 -2 -3 -24 3 -49 11 -44 15 -147 14 -255 -3 -37 -6 -37 -6 -69 57 -17 35 -49 93 -70 127 -22 35 -39 66 -39 68 0 26 303 104 390 101 l34 -2 18 -90z m-1441 28 c19 -9 36 -17 38 -19 3 -3 -95 -201 -105 -213 -5 -6 -82 30 -94 44 -6 7 1 26 20 56 17 24 30 48 30 53 0 19 51 96 64 96 7 0 28 -7 47 -17z m-1619 -118 c227 -116 267 -156 284 -284 8 -62 -24 -136 -86 -200 -46 -47 -67 -50 -132 -21 -99 43 -217 32 -370 -37 -58 -26 -88 -26 -88 1 0 29 236 123 357 142 37 6 47 3 85 -25 53 -39 72 -39 110 2 66 69 68 114 11 233 -31 65 -21 65 -152 8 -377 -165 -660 -336 -856 -517 -85 -79 -93 -69 -35 51 127 265 386 538 645 680 75 40 87 39 227 -33z m-1063 11 c22 -8 68 -18 101 -22 72 -8 83 -33 27 -60 -34 -16 -63 -14 -143 11 -17 5 -29 -4 -63 -47 -56 -69 -119 -91 -92 -31 15 34 111 163 121 163 4 0 26 -7 49 -14z m1754 -12 c190 -96 129 -371 -81 -368 -135 1 -211 81 -200 209 10 125 170 215 281 159z m1310 -16 c16 -12 15 -22 -15 -133 -17 -66 -32 -121 -33 -123 -4 -5 -95 20 -100 27 -8 13 57 216 73 229 9 6 25 12 37 12 12 0 29 -6 38 -12z m487 7 c0 -3 -2 -5 -5 -5 -3 0 -5 2 -5 5 0 3 2 5 5 5 3 0 5 -2 5 -5z m109 -34 c18 -12 7 -27 -25 -35 -34 -9 -52 7 -34 29 14 17 38 19 59 6z m-1138 -97 c37 -19 37 -17 -43 -147 -47 -76 -64 -97 -77 -91 -9 3 -26 9 -39 11 -32 8 -37 21 -14 46 11 12 45 61 76 110 31 48 59 87 62 87 3 0 19 -7 35 -16z m1212 -6 c30 -24 24 -40 -23 -54 -25 -7 -51 -14 -58 -14 -15 0 -35 48 -28 67 7 17 86 17 109 1z m-3883 -69 c0 -15 -71 -89 -101 -105 -61 -31 -66 -7 -11 52 52 58 112 87 112 53z m4226 -47 c13 -8 27 -139 15 -146 -13 -8 -131 23 -147 38 -19 19 -54 103 -47 110 9 9 166 7 179 -2z m-220 -37 c27 -67 24 -70 -69 -69 -115 2 -109 -1 -105 41 3 37 3 38 63 49 93 18 95 17 111 -21z m-893 -29 c23 -18 22 -30 -13 -91 -29 -50 -95 -113 -107 -101 -3 3 11 45 31 94 20 50 36 95 36 101 0 15 31 13 53 -3z m-1428 -91 c64 -32 169 -41 258 -22 34 7 38 6 35 -9 -6 -34 -54 -57 -130 -63 -58 -5 -78 -11 -96 -29 l-23 -23 -40 36 c-22 20 -55 43 -74 52 -19 9 -35 24 -35 33 0 19 29 62 39 58 3 -2 33 -16 66 -33z m808 -30 c0 -5 -24 -27 -54 -48 -64 -45 -75 -33 -34 37 26 44 27 45 56 33 17 -7 31 -16 32 -22z m1375 -13 l23 -7 -21 -22 c-11 -13 -46 -42 -76 -65 l-56 -42 -44 46 c-24 26 -44 51 -44 57 0 23 165 47 218 33z m185 -27 c11 -8 17 -21 14 -32 -3 -10 -11 -38 -17 -62 l-11 -43 -46 7 c-49 7 -93 24 -93 35 0 13 108 110 122 110 7 0 21 -7 31 -15z m-2457 -55 c36 -22 71 -40 76 -40 37 0 -146 -118 -322 -207 -58 -29 -113 -58 -123 -64 -17 -9 -17 -13 8 -55 42 -72 25 -88 -33 -31 l-47 46 -95 -29 c-130 -40 -240 -62 -297 -58 -55 4 -61 1 122 61 218 72 238 81 321 143 74 56 265 223 293 257 19 23 23 22 97 -23z m2624 24 c12 -13 39 -157 40 -206 0 -19 -93 -28 -103 -10 -6 10 18 206 27 221 10 15 21 14 36 -5z m200 -75 c51 -87 121 -272 108 -284 -3 -3 -28 -8 -56 -12 l-51 -6 -10 39 c-5 22 -23 92 -40 156 -31 117 -37 159 -24 171 12 12 47 -19 73 -64z m-791 -3 l53 -53 -52 -44 c-29 -24 -79 -68 -112 -96 -34 -29 -64 -53 -68 -53 -24 0 -200 98 -200 111 0 18 278 187 310 188 9 1 40 -23 69 -53z m297 -77 c32 -6 65 -13 72 -15 21 -6 -157 -333 -182 -334 -11 0 -160 99 -201 135 l-30 25 60 53 c33 28 82 73 110 99 55 53 70 56 171 37z m138 -181 c-17 -104 -38 -163 -62 -166 -37 -6 -35 21 10 117 47 100 62 113 52 49z m220 -35 c4 -43 9 -95 11 -115 8 -56 -19 -78 -92 -78 -89 0 -88 -2 -69 137 9 65 16 122 16 126 0 4 29 7 64 7 l64 0 6 -77z m283 -68 c7 -22 -18 -38 -66 -43 -46 -4 -51 -2 -60 19 -7 20 -5 25 13 31 30 9 109 5 113 -7z"/>
    <path d="M1945 2990 c-69 -14 -199 -70 -163 -70 4 0 62 -16 129 -35 68 -19 127 -35 131 -35 14 0 9 53 -9 103 -18 50 -20 51 -88 37z"/>
    <path d="M5022 2520 l-34 -21 37 -40 c20 -23 57 -73 82 -112 64 -101 88 -125 119 -119 13 2 27 8 30 13 14 23 -165 299 -193 299 -4 0 -23 -9 -41 -20z"/>
    <path d="M1357 2182 c-21 -23 -21 -41 -1 -70 20 -29 69 -30 84 -2 31 57 -41 119 -83 72z"/>
    <path d="M5210 1988 c-76 -14 -77 -16 -50 -103 27 -86 33 -90 130 -83 76 5 73 0 52 104 -21 102 -22 102 -132 82z"/>
    <path d="M2874 1821 c-63 -38 -70 -148 -12 -196 66 -56 189 -21 203 58 21 110 -97 195 -191 138z m108 -68 c34 -31 11 -93 -35 -93 -45 0 -76 67 -45 98 17 17 58 15 80 -5z"/>
    <path d="M4588 1223 c-74 -53 -80 -63 -43 -83 23 -12 28 -10 82 41 97 90 70 119 -39 42z"/>
  </g>
</svg>